<svg width="35" height="34" viewBox="0 0 35 34" fill="none" xmlns="http://www.w3.org/2000/svg">
<g opacity="0.5" clip-path="url(#clip0_37_1571)">
<path d="M22.1063 15.0736C22.208 15.1732 22.3459 15.2292 22.4898 15.2292H22.5109C22.5855 15.2264 22.6587 15.2085 22.7259 15.1767C22.7931 15.1449 22.8529 15.0998 22.9015 15.0443L26.156 11.3256C26.2432 11.2179 26.2844 11.0813 26.2709 10.9445C26.2575 10.8077 26.1904 10.6814 26.0838 10.592C25.9773 10.5026 25.8395 10.4571 25.6994 10.4651C25.5593 10.4732 25.4278 10.534 25.3326 10.635L22.4578 13.9181L21.2449 12.7302C21.1426 12.6335 21.0056 12.5799 20.8634 12.5811C20.7212 12.5823 20.5851 12.6382 20.4846 12.7367C20.384 12.8352 20.3269 12.9684 20.3257 13.1077C20.3245 13.247 20.3791 13.3812 20.4779 13.4814L22.1063 15.0736Z" fill="#4C1C72"/>
<path d="M31.7109 0.53125H16.5232C15.8041 0.532094 15.1148 0.812219 14.6064 1.31018C14.0979 1.80814 13.8119 2.48328 13.8111 3.1875V15.9375H13.2789C12.8076 15.9367 12.3477 16.0791 11.9625 16.345L8.58917 18.6655C7.84986 19.0581 7.21372 19.6135 6.73084 20.2879L4.18418 23.8531C3.89177 24.2637 3.44833 24.5474 2.94692 24.6447L1.2269 24.9794C1.10439 25.0039 0.994272 25.0691 0.915197 25.1639C0.836122 25.2588 0.792943 25.3775 0.792969 25.5V32.9375C0.792969 33.0784 0.850116 33.2135 0.95184 33.3131C1.05356 33.4128 1.19153 33.4688 1.33539 33.4688H11.3506C12.3721 33.4708 13.3558 33.0908 14.1007 32.4062L14.2548 32.2649C14.5013 32.6341 14.8377 32.9374 15.2337 33.1475C15.6297 33.3576 16.0728 33.468 16.5232 33.4688H31.7109C32.4299 33.4679 33.1193 33.1878 33.6277 32.6898C34.1361 32.1919 34.4222 31.5167 34.423 30.8125V3.1875C34.4222 2.48328 34.1361 1.80814 33.6277 1.31018C33.1193 0.812219 32.4299 0.532094 31.7109 0.53125ZM26.6767 1.59375L26.4055 2.65625H19.6589L19.3877 1.59375H26.6767ZM12.8282 26.4764C12.7712 26.5236 12.7017 26.5538 12.6277 26.5636C12.5538 26.5734 12.4786 26.5622 12.4109 26.5315C12.3432 26.5008 12.2859 26.4519 12.2456 26.3903C12.2054 26.3288 12.1839 26.2573 12.1838 26.1842V22.236C12.1843 22.1892 12.1974 22.1434 12.2218 22.1032C12.2462 22.063 12.281 22.0298 12.3227 22.007L13.8111 21.1278V25.662L12.8282 26.4764ZM11.3506 32.4062H1.87781V25.9356L3.15955 25.6843C3.93479 25.5348 4.6207 25.0969 5.07321 24.4625L7.61933 20.8999C8.01102 20.3534 8.52827 19.9047 9.12942 19.5898C9.14902 19.5795 9.16804 19.5682 9.18638 19.5558L12.5857 17.2183C12.7889 17.0792 13.031 17.005 13.2789 17.0058H13.8111V19.8932L11.7688 21.0991C11.5662 21.2156 11.3979 21.3815 11.2805 21.5808C11.163 21.7801 11.1005 22.0059 11.099 22.236V26.1842C11.0991 26.46 11.1797 26.7299 11.3312 26.9622C11.4828 27.1945 11.699 27.3796 11.9544 27.4956C12.2098 27.6115 12.4937 27.6536 12.7727 27.6167C13.0517 27.5799 13.3141 27.4657 13.529 27.2877L18.5138 23.1567C18.7577 22.9547 19.0667 22.8439 19.386 22.8438H19.5124C19.7793 22.8429 20.0404 22.9197 20.2625 23.0645C20.4847 23.2093 20.6579 23.4155 20.7601 23.657C20.8623 23.8984 20.8889 24.1641 20.8365 24.4204C20.7842 24.6767 20.6552 24.9119 20.466 25.0962C20.4383 25.1188 20.4131 25.1441 20.3906 25.1717L13.3587 31.6285C12.8149 32.1288 12.0967 32.4069 11.3506 32.4062ZM21.5367 22.8438H26.8291V24.9688H21.7928C21.9283 24.6206 21.9758 24.2455 21.9312 23.8755C21.8866 23.5054 21.7513 23.1514 21.5367 22.8438ZM15.0662 31.5175L21.041 26.0312H26.8291C27.1168 26.0312 27.3928 25.9193 27.5962 25.7201C27.7997 25.5208 27.914 25.2505 27.914 24.9688V22.8438C27.914 22.562 27.7997 22.2917 27.5962 22.0924C27.3928 21.8932 27.1168 21.7812 26.8291 21.7812H19.386C18.81 21.7813 18.2526 21.9814 17.813 22.346L14.8959 24.7632V3.1875C14.8959 2.76481 15.0673 2.35943 15.3725 2.06055C15.6777 1.76166 16.0916 1.59375 16.5232 1.59375H18.2692L18.7091 3.31659C18.7385 3.43147 18.8062 3.53345 18.9016 3.60631C18.9969 3.67917 19.1143 3.71875 19.2353 3.71875H26.8291C26.9501 3.71875 27.0675 3.67917 27.1628 3.60631C27.2582 3.53345 27.3259 3.43147 27.3553 3.31659L27.7952 1.59375H29.5412C29.9728 1.59375 30.3867 1.76166 30.6919 2.06055C30.997 2.35943 31.1685 2.76481 31.1685 3.1875V30.8125C31.1685 31.2352 30.997 31.6406 30.6919 31.9394C30.3867 32.2383 29.9728 32.4062 29.5412 32.4062H16.5232C16.2199 32.4058 15.9227 32.3223 15.6653 32.1653C15.4079 32.0083 15.2004 31.7839 15.0662 31.5175ZM33.3382 30.8125C33.3382 31.2352 33.1667 31.6406 32.8616 31.9394C32.5564 32.2383 32.1425 32.4062 31.7109 32.4062H31.6968C32.0558 31.9492 32.2513 31.3892 32.2533 30.8125V3.1875C32.2513 2.61084 32.0558 2.05083 31.6968 1.59375H31.7109C32.1425 1.59375 32.5564 1.76166 32.8616 2.06055C33.1667 2.35943 33.3382 2.76481 33.3382 3.1875V30.8125Z" fill="#4C1C72"/>
</g>
<defs>
<clipPath id="clip0_37_1571">
<rect width="34.7149" height="34" fill="white" transform="translate(0.250488)"/>
</clipPath>
</defs>
</svg>
