<svg width="17" height="17" viewBox="0 0 17 17" fill="none" xmlns="http://www.w3.org/2000/svg">
<g clip-path="url(#clip0_2027_624)">
<path d="M5.16667 9.83333C5.16667 10.0101 5.09643 10.1797 4.9714 10.3047C4.84638 10.4298 4.67681 10.5 4.5 10.5H3.83333C3.65652 10.5 3.48695 10.4298 3.36193 10.3047C3.2369 10.1797 3.16667 10.0101 3.16667 9.83333C3.16667 9.65652 3.2369 9.48695 3.36193 9.36193C3.48695 9.23691 3.65652 9.16667 3.83333 9.16667H4.5C4.67681 9.16667 4.84638 9.23691 4.9714 9.36193C5.09643 9.48695 5.16667 9.65652 5.16667 9.83333ZM7.83333 9.16667H7.16667C6.98986 9.16667 6.82029 9.23691 6.69526 9.36193C6.57024 9.48695 6.5 9.65652 6.5 9.83333C6.5 10.0101 6.57024 10.1797 6.69526 10.3047C6.82029 10.4298 6.98986 10.5 7.16667 10.5H7.83333C8.01014 10.5 8.17971 10.4298 8.30474 10.3047C8.42976 10.1797 8.5 10.0101 8.5 9.83333C8.5 9.65652 8.42976 9.48695 8.30474 9.36193C8.17971 9.23691 8.01014 9.16667 7.83333 9.16667ZM4.5 11.8333H3.83333C3.65652 11.8333 3.48695 11.9036 3.36193 12.0286C3.2369 12.1536 3.16667 12.3232 3.16667 12.5C3.16667 12.6768 3.2369 12.8464 3.36193 12.9714C3.48695 13.0964 3.65652 13.1667 3.83333 13.1667H4.5C4.67681 13.1667 4.84638 13.0964 4.9714 12.9714C5.09643 12.8464 5.16667 12.6768 5.16667 12.5C5.16667 12.3232 5.09643 12.1536 4.9714 12.0286C4.84638 11.9036 4.67681 11.8333 4.5 11.8333ZM7.83333 11.8333H7.16667C6.98986 11.8333 6.82029 11.9036 6.69526 12.0286C6.57024 12.1536 6.5 12.3232 6.5 12.5C6.5 12.6768 6.57024 12.8464 6.69526 12.9714C6.82029 13.0964 6.98986 13.1667 7.16667 13.1667H7.83333C8.01014 13.1667 8.17971 13.0964 8.30474 12.9714C8.42976 12.8464 8.5 12.6768 8.5 12.5C8.5 12.3232 8.42976 12.1536 8.30474 12.0286C8.17971 11.9036 8.01014 11.8333 7.83333 11.8333ZM4.5 3.83333H3.83333C3.65652 3.83333 3.48695 3.90357 3.36193 4.0286C3.2369 4.15362 3.16667 4.32319 3.16667 4.5C3.16667 4.67681 3.2369 4.84638 3.36193 4.9714C3.48695 5.09643 3.65652 5.16667 3.83333 5.16667H4.5C4.67681 5.16667 4.84638 5.09643 4.9714 4.9714C5.09643 4.84638 5.16667 4.67681 5.16667 4.5C5.16667 4.32319 5.09643 4.15362 4.9714 4.0286C4.84638 3.90357 4.67681 3.83333 4.5 3.83333ZM7.83333 3.83333H7.16667C6.98986 3.83333 6.82029 3.90357 6.69526 4.0286C6.57024 4.15362 6.5 4.32319 6.5 4.5C6.5 4.67681 6.57024 4.84638 6.69526 4.9714C6.82029 5.09643 6.98986 5.16667 7.16667 5.16667H7.83333C8.01014 5.16667 8.17971 5.09643 8.30474 4.9714C8.42976 4.84638 8.5 4.67681 8.5 4.5C8.5 4.32319 8.42976 4.15362 8.30474 4.0286C8.17971 3.90357 8.01014 3.83333 7.83333 3.83333ZM4.5 6.5H3.83333C3.65652 6.5 3.48695 6.57024 3.36193 6.69526C3.2369 6.82029 3.16667 6.98986 3.16667 7.16667C3.16667 7.34348 3.2369 7.51305 3.36193 7.63807C3.48695 7.7631 3.65652 7.83333 3.83333 7.83333H4.5C4.67681 7.83333 4.84638 7.7631 4.9714 7.63807C5.09643 7.51305 5.16667 7.34348 5.16667 7.16667C5.16667 6.98986 5.09643 6.82029 4.9714 6.69526C4.84638 6.57024 4.67681 6.5 4.5 6.5ZM7.83333 6.5H7.16667C6.98986 6.5 6.82029 6.57024 6.69526 6.69526C6.57024 6.82029 6.5 6.98986 6.5 7.16667C6.5 7.34348 6.57024 7.51305 6.69526 7.63807C6.82029 7.7631 6.98986 7.83333 7.16667 7.83333H7.83333C8.01014 7.83333 8.17971 7.7631 8.30474 7.63807C8.42976 7.51305 8.5 7.34348 8.5 7.16667C8.5 6.98986 8.42976 6.82029 8.30474 6.69526C8.17971 6.57024 8.01014 6.5 7.83333 6.5ZM16.5 7.16667V13.1667C16.4989 14.0504 16.1474 14.8976 15.5225 15.5225C14.8976 16.1474 14.0504 16.4989 13.1667 16.5H3.83333C2.9496 16.4989 2.10237 16.1474 1.47748 15.5225C0.852588 14.8976 0.501059 14.0504 0.5 13.1667L0.5 3.83333C0.501059 2.9496 0.852588 2.10237 1.47748 1.47748C2.10237 0.852588 2.9496 0.501059 3.83333 0.5L7.83333 0.5C8.71706 0.501059 9.56429 0.852588 10.1892 1.47748C10.8141 2.10237 11.1656 2.9496 11.1667 3.83333H13.1667C14.0504 3.83439 14.8976 4.18592 15.5225 4.81081C16.1474 5.43571 16.4989 6.28294 16.5 7.16667ZM3.83333 15.1667H9.83333V3.83333C9.83333 3.3029 9.62262 2.79419 9.24755 2.41912C8.87247 2.04405 8.36377 1.83333 7.83333 1.83333H3.83333C3.3029 1.83333 2.79419 2.04405 2.41912 2.41912C2.04405 2.79419 1.83333 3.3029 1.83333 3.83333V13.1667C1.83333 13.6971 2.04405 14.2058 2.41912 14.5809C2.79419 14.956 3.3029 15.1667 3.83333 15.1667ZM15.1667 7.16667C15.1667 6.63623 14.956 6.12753 14.5809 5.75245C14.2058 5.37738 13.6971 5.16667 13.1667 5.16667H11.1667V15.1667H13.1667C13.6971 15.1667 14.2058 14.956 14.5809 14.5809C14.956 14.2058 15.1667 13.6971 15.1667 13.1667V7.16667ZM13.1667 9.16667C13.0348 9.16667 12.9059 9.20577 12.7963 9.27902C12.6867 9.35227 12.6012 9.45639 12.5507 9.57821C12.5003 9.70003 12.4871 9.83407 12.5128 9.96339C12.5385 10.0927 12.602 10.2115 12.6953 10.3047C12.7885 10.398 12.9073 10.4615 13.0366 10.4872C13.1659 10.5129 13.3 10.4997 13.4218 10.4493C13.5436 10.3988 13.6477 10.3133 13.721 10.2037C13.7942 10.0941 13.8333 9.96519 13.8333 9.83333C13.8333 9.65652 13.7631 9.48695 13.6381 9.36193C13.513 9.23691 13.3435 9.16667 13.1667 9.16667ZM13.1667 11.8333C13.0348 11.8333 12.9059 11.8724 12.7963 11.9457C12.6867 12.0189 12.6012 12.1231 12.5507 12.2449C12.5003 12.3667 12.4871 12.5007 12.5128 12.6301C12.5385 12.7594 12.602 12.8782 12.6953 12.9714C12.7885 13.0646 12.9073 13.1281 13.0366 13.1539C13.1659 13.1796 13.3 13.1664 13.4218 13.1159C13.5436 13.0655 13.6477 12.98 13.721 12.8704C13.7942 12.7607 13.8333 12.6319 13.8333 12.5C13.8333 12.3232 13.7631 12.1536 13.6381 12.0286C13.513 11.9036 13.3435 11.8333 13.1667 11.8333ZM13.1667 6.5C13.0348 6.5 12.9059 6.5391 12.7963 6.61235C12.6867 6.68561 12.6012 6.78973 12.5507 6.91154C12.5003 7.03336 12.4871 7.16741 12.5128 7.29673C12.5385 7.42605 12.602 7.54484 12.6953 7.63807C12.7885 7.73131 12.9073 7.7948 13.0366 7.82052C13.1659 7.84625 13.3 7.83305 13.4218 7.78259C13.5436 7.73213 13.6477 7.64668 13.721 7.53705C13.7942 7.42741 13.8333 7.29852 13.8333 7.16667C13.8333 6.98986 13.7631 6.82029 13.6381 6.69526C13.513 6.57024 13.3435 6.5 13.1667 6.5Z" fill="black"/>
</g>
<defs>
<clipPath id="clip0_2027_624">
<rect width="16" height="16" fill="white" transform="translate(0.5 0.5)"/>
</clipPath>
</defs>
</svg>
