<svg width="16" height="16" viewBox="0 0 16 16" fill="none" xmlns="http://www.w3.org/2000/svg">
<path d="M10.8501 9.41291L8.61926 7.73979V4.3316C8.61926 3.98891 8.34226 3.71191 7.99957 3.71191C7.65688 3.71191 7.37988 3.98891 7.37988 4.3316V8.04966C7.37988 8.24485 7.4716 8.42891 7.62776 8.54541L10.1064 10.4044C10.2134 10.485 10.3437 10.5285 10.4776 10.5284C10.6666 10.5284 10.8525 10.4435 10.974 10.2799C11.1798 10.0066 11.124 9.61804 10.8501 9.41291Z" fill="#8F9092"/>
<path d="M0.55 8C0.55 3.89229 3.89229 0.55 8 0.55C12.1077 0.55 15.45 3.89229 15.45 8C15.45 12.1077 12.1077 15.45 8 15.45C3.89229 15.45 0.55 12.1077 0.55 8ZM0.689344 8C0.689344 12.0311 3.9689 15.3107 8 15.3107C12.0311 15.3107 15.3107 12.0311 15.3107 8C15.3107 3.96893 12.0318 0.689344 8 0.689344C3.9689 0.689344 0.689344 3.9689 0.689344 8Z" stroke="#9C9EA0" stroke-width="1.1"/>
</svg>
