<svg width="31" height="30" viewBox="0 0 31 30" fill="none" xmlns="http://www.w3.org/2000/svg">
<path d="M26.0642 6.22664L20.2956 0.881602C19.682 0.313066 18.8789 0 18.0343 0H7.05165C5.23731 0 3.76123 1.44568 3.76123 3.22266V26.7773C3.76123 28.5543 5.23731 30 7.05165 30H23.8029C25.6172 30 27.0933 28.5543 27.0933 26.7773V8.5677C27.0933 7.68592 26.7182 6.83262 26.0642 6.22664ZM24.321 7.03125H19.8544C19.6894 7.03125 19.5552 6.89982 19.5552 6.73828V2.61539L24.321 7.03125ZM23.8029 28.2422H7.05165C6.22695 28.2422 5.556 27.5851 5.556 26.7773V3.22266C5.556 2.41494 6.22695 1.75781 7.05165 1.75781H17.7605V6.73828C17.7605 7.86908 18.6998 8.78906 19.8544 8.78906H25.2985V26.7773C25.2985 27.5851 24.6276 28.2422 23.8029 28.2422Z" fill="url(#paint0_linear_12_962)"/>
<path d="M21.8286 11.7188H8.66692C8.17132 11.7188 7.76953 12.1123 7.76953 12.5977C7.76953 13.083 8.17132 13.4766 8.66692 13.4766H21.8286C22.3242 13.4766 22.726 13.083 22.726 12.5977C22.726 12.1123 22.3242 11.7188 21.8286 11.7188ZM21.8286 16.4062H8.66692C8.17132 16.4062 7.76953 16.7998 7.76953 17.2852C7.76953 17.7705 8.17132 18.1641 8.66692 18.1641H21.8286C22.3242 18.1641 22.726 17.7705 22.726 17.2852C22.726 16.7998 22.3242 16.4062 21.8286 16.4062ZM13.0174 21.0938H8.66692C8.17132 21.0938 7.76953 21.4873 7.76953 21.9727C7.76953 22.458 8.17132 22.8516 8.66692 22.8516H13.0174C13.513 22.8516 13.9148 22.458 13.9148 21.9727C13.9148 21.4873 13.513 21.0938 13.0174 21.0938Z" fill="url(#paint1_linear_12_962)"/>
<defs>
<linearGradient id="paint0_linear_12_962" x1="15.4273" y1="0" x2="15.4273" y2="30" gradientUnits="userSpaceOnUse">
<stop stop-color="#B1B0FB"/>
<stop offset="1" stop-color="#8280FF"/>
</linearGradient>
<linearGradient id="paint1_linear_12_962" x1="15.2477" y1="11.7188" x2="15.2477" y2="22.8516" gradientUnits="userSpaceOnUse">
<stop stop-color="#B1B0FB"/>
<stop offset="1" stop-color="#8280FF"/>
</linearGradient>
</defs>
</svg>
