<svg width="35" height="32" viewBox="0 0 35 32" fill="none" xmlns="http://www.w3.org/2000/svg">
<path d="M29.3365 11.2138C31.1861 10.2475 32.4379 8.41321 32.4379 6.31346C32.4379 3.21227 29.7078 0.689209 26.3515 0.689209C22.7732 0.689209 19.9148 3.55627 20.2993 6.91658C18.5798 6.11233 16.5399 6.11202 14.8197 6.91658C15.2043 3.56365 12.3532 0.689209 8.76758 0.689209C5.4119 0.689209 2.68105 3.21227 2.68105 6.31346C2.68105 8.41327 3.93288 10.2475 5.78309 11.2138C2.78068 12.3149 0.652344 15.0254 0.652344 18.1873V25.0613C0.652344 25.4065 0.954884 25.6865 1.32871 25.6865H9.44395V30.6856C9.44395 31.0307 9.7471 31.3106 10.1203 31.3106H24.9985C25.3723 31.3106 25.6749 31.0307 25.6749 30.6856V25.6865H33.7907C34.164 25.6865 34.4664 25.4065 34.4664 25.0613V18.1873C34.4665 15.0254 32.3382 12.3149 29.3365 11.2138ZM26.3513 1.9389C28.962 1.9389 31.0849 3.90133 31.0849 6.3134C31.0849 8.72571 28.9618 10.6881 26.3513 10.6881C25.0704 10.6881 23.8768 10.2236 22.9797 9.38065C22.7321 8.93491 22.4215 8.52151 22.0562 8.15127C21.7663 7.57383 21.617 6.95615 21.617 6.3134C21.617 3.9014 23.7407 1.9389 26.3513 1.9389ZM22.2907 12.0433C22.2069 14.4876 20.0666 16.3125 17.5597 16.3125C14.9399 16.3125 12.8254 14.3387 12.8254 11.9377C12.8254 9.52596 14.9491 7.56352 17.5597 7.56352C20.1934 7.56352 22.3555 9.56927 22.2907 12.0433ZM4.03372 6.31346C4.03372 3.9014 6.15746 1.93896 8.76737 1.93896C11.378 1.93896 13.5017 3.9014 13.5017 6.31346C13.5017 6.95621 13.3531 7.5739 13.0625 8.15133C12.6971 8.52154 12.3866 8.93495 12.139 9.38071C11.2419 10.2236 10.049 10.6882 8.76737 10.6882C6.15753 10.6882 4.03372 8.72571 4.03372 6.31346ZM2.00448 24.4363V18.1873C2.00448 14.7413 5.03847 11.9377 8.76737 11.9377C9.72329 11.9377 10.6401 12.1165 11.5002 12.4688C11.6911 14.3439 12.8821 15.9542 14.5745 16.838C11.5721 17.9391 9.44388 20.65 9.44388 23.8116V24.4363H2.00448ZM24.3228 30.061H10.7968V23.8116C10.7968 20.3656 13.8308 17.5624 17.5597 17.5624C21.2888 17.5624 24.3228 20.3658 24.3228 23.8116V30.061ZM33.1143 24.4363H25.6749V23.8116C25.6749 20.65 23.5465 17.9391 20.5443 16.838C22.2366 15.9541 23.4277 14.3439 23.6186 12.4688C24.4787 12.1165 25.3962 11.9377 26.3514 11.9377C30.0803 11.9377 33.1142 14.7413 33.1142 18.1873V24.4363H33.1143Z" fill="black"/>
</svg>
