<svg width="16" height="16" viewBox="0 0 16 16" fill="none" xmlns="http://www.w3.org/2000/svg">
<path d="M3.96969 0.912536L3.96975 0.912536L13.7272 0.912536H13.7273V0.962536L3.96969 0.912536ZM3.96969 0.912536C3.59029 0.912981 3.22654 1.06387 2.95823 1.33211C2.68991 1.60036 2.53892 1.96406 2.53838 2.34346V2.34354M3.96969 0.912536L2.53838 2.34354M2.53838 2.34354V11.6597M2.53838 2.34354V11.6597M2.53838 11.6597H1C0.920435 11.6597 0.844129 11.6913 0.787868 11.7475C0.731607 11.8038 0.7 11.8801 0.7 11.9597L0.7 13.3738L0.7 13.3739C0.700613 13.8282 0.881412 14.2638 1.20274 14.5851C1.52407 14.9063 1.95969 15.087 2.41407 15.0875H2.41412H11.1819H11.182C11.5988 15.0869 11.9985 14.921 12.2932 14.6262C12.588 14.3314 12.7539 13.9317 12.7545 13.5149V13.5148V8.44141H15C15.0796 8.44141 15.1559 8.4098 15.2121 8.35354C15.2684 8.29728 15.3 8.22097 15.3 8.14141L15.3 2.48509L15.3 2.48491L2.53838 11.6597ZM2.41418 14.4875H2.83838L9.73853 14.4879C9.47309 14.1788 9.32599 13.7837 9.32625 13.3738M2.41418 14.4875L9.37625 13.3738M2.41418 14.4875C2.11885 14.4872 1.83571 14.3697 1.62685 14.1609C1.41798 13.9521 1.30044 13.669 1.3 13.3737L1.3 12.2597H9.32625M2.41418 14.4875L9.32625 12.2097V12.2597M9.32625 13.3738L9.37625 13.3738M9.32625 13.3738V13.3738H9.37625M9.32625 13.3738V12.2597M9.37625 13.3738V12.2597H9.32625M12.1545 2.48488V2.48491V13.5151C12.1539 13.7729 12.0513 14.02 11.869 14.2023C11.6867 14.3846 11.4396 14.4873 11.1818 14.4879H11.0404C10.745 14.4876 10.4618 14.3701 10.253 14.1612C10.0441 13.9523 9.9266 13.6691 9.92625 13.3737V11.9597C9.92625 11.8801 9.89464 11.8038 9.83838 11.7475C9.78212 11.6913 9.70582 11.6597 9.62625 11.6597H3.13875V2.34361C3.13909 2.1233 3.22676 1.91211 3.38255 1.75633C3.53833 1.60055 3.74952 1.51288 3.96983 1.51254L12.494 1.51254C12.2751 1.7882 12.1547 2.13069 12.1545 2.48488ZM12.7545 7.84141V2.48497C12.7548 2.22705 12.8574 1.97978 13.0397 1.7974C13.2221 1.61504 13.4693 1.51246 13.7272 1.51216C13.985 1.51275 14.2321 1.61543 14.4144 1.79773C14.5968 1.98005 14.6994 2.22718 14.7 2.48502V7.84141H12.7545Z" fill="#8F9092" stroke="#8F9092" stroke-width="0.1"/>
<mask id="path-2-outside-1_40_7651" maskUnits="userSpaceOnUse" x="3.28516" y="1.65918" width="8" height="9" fill="black">
<rect fill="white" x="3.28516" y="1.65918" width="8" height="9"/>
<path d="M5.63253 5.34043H5.57403C5.49146 5.34841 5.40904 5.32383 5.34434 5.27192C5.27964 5.22002 5.23777 5.14489 5.22766 5.06255C5.22766 4.99625 5.20132 4.93266 5.15443 4.88578C5.10755 4.83889 5.04396 4.81255 4.97766 4.81255C4.91135 4.81255 4.84776 4.83889 4.80088 4.88578C4.754 4.93266 4.72766 4.99625 4.72766 5.06255C4.73326 5.2395 4.79792 5.40948 4.91135 5.54541C5.02478 5.68133 5.18044 5.77538 5.35353 5.81255V5.94755C5.35353 6.01386 5.37987 6.07745 5.42675 6.12433C5.47364 6.17122 5.53723 6.19755 5.60353 6.19755C5.66984 6.19755 5.73342 6.17122 5.78031 6.12433C5.82719 6.07745 5.85353 6.01386 5.85353 5.94755V5.81255C6.02648 5.77525 6.18197 5.68114 6.29523 5.54522C6.4085 5.4093 6.47302 5.23939 6.47853 5.06255V4.95505C6.46879 4.73992 6.37431 4.53738 6.21573 4.39168C6.05714 4.24598 5.84734 4.16895 5.63216 4.17743H5.57366C5.49115 4.18542 5.40878 4.16089 5.34408 4.10906C5.27939 4.05723 5.23748 3.9822 5.22728 3.89993V3.7943C5.23748 3.71204 5.27939 3.637 5.34408 3.58517C5.40878 3.53334 5.49115 3.50881 5.57366 3.5168H5.63216C5.71467 3.50881 5.79704 3.53334 5.86173 3.58517C5.92642 3.637 5.96833 3.71204 5.97853 3.7943C5.97853 3.86061 6.00487 3.9242 6.05175 3.97108C6.09864 4.01797 6.16223 4.0443 6.22853 4.0443C6.29484 4.0443 6.35842 4.01797 6.40531 3.97108C6.45219 3.9242 6.47853 3.86061 6.47853 3.7943C6.47293 3.61736 6.40826 3.44738 6.29484 3.31145C6.18141 3.17553 6.02574 3.08148 5.85266 3.0443V2.90918C5.85266 2.84288 5.82632 2.77929 5.77943 2.7324C5.73255 2.68552 5.66896 2.65918 5.60266 2.65918C5.53635 2.65918 5.47276 2.68552 5.42588 2.7324C5.379 2.77929 5.35266 2.84288 5.35266 2.90918V3.04455C5.17973 3.0819 5.02427 3.17602 4.91101 3.31193C4.79775 3.44784 4.73321 3.61773 4.72766 3.79455V3.90005C4.73743 4.11517 4.83192 4.31767 4.9905 4.46335C5.14908 4.60902 5.35886 4.68603 5.57403 4.67755H5.63253C5.71505 4.6696 5.79742 4.69416 5.86211 4.74601C5.9268 4.79786 5.96871 4.8729 5.97891 4.95518V5.06255C5.9688 5.14489 5.92693 5.22002 5.86222 5.27192C5.79752 5.32383 5.7151 5.34841 5.63253 5.34043ZM7.50491 4.67868H10.7574C10.8237 4.67868 10.8873 4.65234 10.9342 4.60546C10.9811 4.55857 11.0074 4.49498 11.0074 4.42868C11.0074 4.36238 10.9811 4.29879 10.9342 4.2519C10.8873 4.20502 10.8237 4.17868 10.7574 4.17868H7.50491C7.4386 4.17868 7.37501 4.20502 7.32813 4.2519C7.28125 4.29879 7.25491 4.36238 7.25491 4.42868C7.25491 4.49498 7.28125 4.55857 7.32813 4.60546C7.37501 4.65234 7.4386 4.67868 7.50491 4.67868ZM7.50491 3.26455H10.7574C10.8237 3.26455 10.8873 3.23822 10.9342 3.19133C10.9811 3.14445 11.0074 3.08086 11.0074 3.01455C11.0074 2.94825 10.9811 2.88466 10.9342 2.83778C10.8873 2.79089 10.8237 2.76455 10.7574 2.76455H7.50491C7.4386 2.76455 7.37501 2.79089 7.32813 2.83778C7.28125 2.88466 7.25491 2.94825 7.25491 3.01455C7.25491 3.08086 7.28125 3.14445 7.32813 3.19133C7.37501 3.23822 7.4386 3.26455 7.50491 3.26455ZM7.50491 6.0928H10.7574C10.8237 6.0928 10.8873 6.06647 10.9342 6.01958C10.9811 5.9727 11.0074 5.90911 11.0074 5.8428C11.0074 5.7765 10.9811 5.71291 10.9342 5.66603C10.8873 5.61914 10.8237 5.5928 10.7574 5.5928H7.50491C7.4386 5.5928 7.37501 5.61914 7.32813 5.66603C7.28125 5.71291 7.25491 5.7765 7.25491 5.8428C7.25491 5.90911 7.28125 5.9727 7.32813 6.01958C7.37501 6.06647 7.4386 6.0928 7.50491 6.0928ZM4.53516 7.54293H10.7574C10.8237 7.54293 10.8873 7.51659 10.9342 7.46971C10.9811 7.42282 11.0074 7.35923 11.0074 7.29293C11.0074 7.22663 10.9811 7.16304 10.9342 7.11615C10.8873 7.06927 10.8237 7.04293 10.7574 7.04293H4.53516C4.46885 7.04293 4.40526 7.06927 4.35838 7.11615C4.3115 7.16304 4.28516 7.22663 4.28516 7.29293C4.28516 7.35923 4.3115 7.42282 4.35838 7.46971C4.40526 7.51659 4.46885 7.54293 4.53516 7.54293ZM4.53516 8.95718H10.7574C10.8237 8.95718 10.8873 8.93084 10.9342 8.88396C10.9811 8.83707 11.0074 8.77348 11.0074 8.70718C11.0074 8.64087 10.9811 8.57729 10.9342 8.5304C10.8873 8.48352 10.8237 8.45718 10.7574 8.45718H4.53516C4.46885 8.45718 4.40526 8.48352 4.35838 8.5304C4.3115 8.57729 4.28516 8.64087 4.28516 8.70718C4.28516 8.77348 4.3115 8.83707 4.35838 8.88396C4.40526 8.93084 4.46885 8.95718 4.53516 8.95718ZM4.53516 10.3713H10.7574C10.8237 10.3713 10.8873 10.345 10.9342 10.2981C10.9811 10.2512 11.0074 10.1876 11.0074 10.1213C11.0074 10.055 10.9811 9.99141 10.9342 9.94453C10.8873 9.89764 10.8237 9.8713 10.7574 9.8713H4.53516C4.46885 9.8713 4.40526 9.89764 4.35838 9.94453C4.3115 9.99141 4.28516 10.055 4.28516 10.1213C4.28516 10.1876 4.3115 10.2512 4.35838 10.2981C4.40526 10.345 4.46885 10.3713 4.53516 10.3713Z"/>
</mask>
<path d="M5.63253 5.34043H5.57403C5.49146 5.34841 5.40904 5.32383 5.34434 5.27192C5.27964 5.22002 5.23777 5.14489 5.22766 5.06255C5.22766 4.99625 5.20132 4.93266 5.15443 4.88578C5.10755 4.83889 5.04396 4.81255 4.97766 4.81255C4.91135 4.81255 4.84776 4.83889 4.80088 4.88578C4.754 4.93266 4.72766 4.99625 4.72766 5.06255C4.73326 5.2395 4.79792 5.40948 4.91135 5.54541C5.02478 5.68133 5.18044 5.77538 5.35353 5.81255V5.94755C5.35353 6.01386 5.37987 6.07745 5.42675 6.12433C5.47364 6.17122 5.53723 6.19755 5.60353 6.19755C5.66984 6.19755 5.73342 6.17122 5.78031 6.12433C5.82719 6.07745 5.85353 6.01386 5.85353 5.94755V5.81255C6.02648 5.77525 6.18197 5.68114 6.29523 5.54522C6.4085 5.4093 6.47302 5.23939 6.47853 5.06255V4.95505C6.46879 4.73992 6.37431 4.53738 6.21573 4.39168C6.05714 4.24598 5.84734 4.16895 5.63216 4.17743H5.57366C5.49115 4.18542 5.40878 4.16089 5.34408 4.10906C5.27939 4.05723 5.23748 3.9822 5.22728 3.89993V3.7943C5.23748 3.71204 5.27939 3.637 5.34408 3.58517C5.40878 3.53334 5.49115 3.50881 5.57366 3.5168H5.63216C5.71467 3.50881 5.79704 3.53334 5.86173 3.58517C5.92642 3.637 5.96833 3.71204 5.97853 3.7943C5.97853 3.86061 6.00487 3.9242 6.05175 3.97108C6.09864 4.01797 6.16223 4.0443 6.22853 4.0443C6.29484 4.0443 6.35842 4.01797 6.40531 3.97108C6.45219 3.9242 6.47853 3.86061 6.47853 3.7943C6.47293 3.61736 6.40826 3.44738 6.29484 3.31145C6.18141 3.17553 6.02574 3.08148 5.85266 3.0443V2.90918C5.85266 2.84288 5.82632 2.77929 5.77943 2.7324C5.73255 2.68552 5.66896 2.65918 5.60266 2.65918C5.53635 2.65918 5.47276 2.68552 5.42588 2.7324C5.379 2.77929 5.35266 2.84288 5.35266 2.90918V3.04455C5.17973 3.0819 5.02427 3.17602 4.91101 3.31193C4.79775 3.44784 4.73321 3.61773 4.72766 3.79455V3.90005C4.73743 4.11517 4.83192 4.31767 4.9905 4.46335C5.14908 4.60902 5.35886 4.68603 5.57403 4.67755H5.63253C5.71505 4.6696 5.79742 4.69416 5.86211 4.74601C5.9268 4.79786 5.96871 4.8729 5.97891 4.95518V5.06255C5.9688 5.14489 5.92693 5.22002 5.86222 5.27192C5.79752 5.32383 5.7151 5.34841 5.63253 5.34043ZM7.50491 4.67868H10.7574C10.8237 4.67868 10.8873 4.65234 10.9342 4.60546C10.9811 4.55857 11.0074 4.49498 11.0074 4.42868C11.0074 4.36238 10.9811 4.29879 10.9342 4.2519C10.8873 4.20502 10.8237 4.17868 10.7574 4.17868H7.50491C7.4386 4.17868 7.37501 4.20502 7.32813 4.2519C7.28125 4.29879 7.25491 4.36238 7.25491 4.42868C7.25491 4.49498 7.28125 4.55857 7.32813 4.60546C7.37501 4.65234 7.4386 4.67868 7.50491 4.67868ZM7.50491 3.26455H10.7574C10.8237 3.26455 10.8873 3.23822 10.9342 3.19133C10.9811 3.14445 11.0074 3.08086 11.0074 3.01455C11.0074 2.94825 10.9811 2.88466 10.9342 2.83778C10.8873 2.79089 10.8237 2.76455 10.7574 2.76455H7.50491C7.4386 2.76455 7.37501 2.79089 7.32813 2.83778C7.28125 2.88466 7.25491 2.94825 7.25491 3.01455C7.25491 3.08086 7.28125 3.14445 7.32813 3.19133C7.37501 3.23822 7.4386 3.26455 7.50491 3.26455ZM7.50491 6.0928H10.7574C10.8237 6.0928 10.8873 6.06647 10.9342 6.01958C10.9811 5.9727 11.0074 5.90911 11.0074 5.8428C11.0074 5.7765 10.9811 5.71291 10.9342 5.66603C10.8873 5.61914 10.8237 5.5928 10.7574 5.5928H7.50491C7.4386 5.5928 7.37501 5.61914 7.32813 5.66603C7.28125 5.71291 7.25491 5.7765 7.25491 5.8428C7.25491 5.90911 7.28125 5.9727 7.32813 6.01958C7.37501 6.06647 7.4386 6.0928 7.50491 6.0928ZM4.53516 7.54293H10.7574C10.8237 7.54293 10.8873 7.51659 10.9342 7.46971C10.9811 7.42282 11.0074 7.35923 11.0074 7.29293C11.0074 7.22663 10.9811 7.16304 10.9342 7.11615C10.8873 7.06927 10.8237 7.04293 10.7574 7.04293H4.53516C4.46885 7.04293 4.40526 7.06927 4.35838 7.11615C4.3115 7.16304 4.28516 7.22663 4.28516 7.29293C4.28516 7.35923 4.3115 7.42282 4.35838 7.46971C4.40526 7.51659 4.46885 7.54293 4.53516 7.54293ZM4.53516 8.95718H10.7574C10.8237 8.95718 10.8873 8.93084 10.9342 8.88396C10.9811 8.83707 11.0074 8.77348 11.0074 8.70718C11.0074 8.64087 10.9811 8.57729 10.9342 8.5304C10.8873 8.48352 10.8237 8.45718 10.7574 8.45718H4.53516C4.46885 8.45718 4.40526 8.48352 4.35838 8.5304C4.3115 8.57729 4.28516 8.64087 4.28516 8.70718C4.28516 8.77348 4.3115 8.83707 4.35838 8.88396C4.40526 8.93084 4.46885 8.95718 4.53516 8.95718ZM4.53516 10.3713H10.7574C10.8237 10.3713 10.8873 10.345 10.9342 10.2981C10.9811 10.2512 11.0074 10.1876 11.0074 10.1213C11.0074 10.055 10.9811 9.99141 10.9342 9.94453C10.8873 9.89764 10.8237 9.8713 10.7574 9.8713H4.53516C4.46885 9.8713 4.40526 9.89764 4.35838 9.94453C4.3115 9.99141 4.28516 10.055 4.28516 10.1213C4.28516 10.1876 4.3115 10.2512 4.35838 10.2981C4.40526 10.345 4.46885 10.3713 4.53516 10.3713Z" fill="#8F9092"/>
<path d="M5.63253 5.34043H5.57403C5.49146 5.34841 5.40904 5.32383 5.34434 5.27192C5.27964 5.22002 5.23777 5.14489 5.22766 5.06255C5.22766 4.99625 5.20132 4.93266 5.15443 4.88578C5.10755 4.83889 5.04396 4.81255 4.97766 4.81255C4.91135 4.81255 4.84776 4.83889 4.80088 4.88578C4.754 4.93266 4.72766 4.99625 4.72766 5.06255C4.73326 5.2395 4.79792 5.40948 4.91135 5.54541C5.02478 5.68133 5.18044 5.77538 5.35353 5.81255V5.94755C5.35353 6.01386 5.37987 6.07745 5.42675 6.12433C5.47364 6.17122 5.53723 6.19755 5.60353 6.19755C5.66984 6.19755 5.73342 6.17122 5.78031 6.12433C5.82719 6.07745 5.85353 6.01386 5.85353 5.94755V5.81255C6.02648 5.77525 6.18197 5.68114 6.29523 5.54522C6.4085 5.4093 6.47302 5.23939 6.47853 5.06255V4.95505C6.46879 4.73992 6.37431 4.53738 6.21573 4.39168C6.05714 4.24598 5.84734 4.16895 5.63216 4.17743H5.57366C5.49115 4.18542 5.40878 4.16089 5.34408 4.10906C5.27939 4.05723 5.23748 3.9822 5.22728 3.89993V3.7943C5.23748 3.71204 5.27939 3.637 5.34408 3.58517C5.40878 3.53334 5.49115 3.50881 5.57366 3.5168H5.63216C5.71467 3.50881 5.79704 3.53334 5.86173 3.58517C5.92642 3.637 5.96833 3.71204 5.97853 3.7943C5.97853 3.86061 6.00487 3.9242 6.05175 3.97108C6.09864 4.01797 6.16223 4.0443 6.22853 4.0443C6.29484 4.0443 6.35842 4.01797 6.40531 3.97108C6.45219 3.9242 6.47853 3.86061 6.47853 3.7943C6.47293 3.61736 6.40826 3.44738 6.29484 3.31145C6.18141 3.17553 6.02574 3.08148 5.85266 3.0443V2.90918C5.85266 2.84288 5.82632 2.77929 5.77943 2.7324C5.73255 2.68552 5.66896 2.65918 5.60266 2.65918C5.53635 2.65918 5.47276 2.68552 5.42588 2.7324C5.379 2.77929 5.35266 2.84288 5.35266 2.90918V3.04455C5.17973 3.0819 5.02427 3.17602 4.91101 3.31193C4.79775 3.44784 4.73321 3.61773 4.72766 3.79455V3.90005C4.73743 4.11517 4.83192 4.31767 4.9905 4.46335C5.14908 4.60902 5.35886 4.68603 5.57403 4.67755H5.63253C5.71505 4.6696 5.79742 4.69416 5.86211 4.74601C5.9268 4.79786 5.96871 4.8729 5.97891 4.95518V5.06255C5.9688 5.14489 5.92693 5.22002 5.86222 5.27192C5.79752 5.32383 5.7151 5.34841 5.63253 5.34043ZM7.50491 4.67868H10.7574C10.8237 4.67868 10.8873 4.65234 10.9342 4.60546C10.9811 4.55857 11.0074 4.49498 11.0074 4.42868C11.0074 4.36238 10.9811 4.29879 10.9342 4.2519C10.8873 4.20502 10.8237 4.17868 10.7574 4.17868H7.50491C7.4386 4.17868 7.37501 4.20502 7.32813 4.2519C7.28125 4.29879 7.25491 4.36238 7.25491 4.42868C7.25491 4.49498 7.28125 4.55857 7.32813 4.60546C7.37501 4.65234 7.4386 4.67868 7.50491 4.67868ZM7.50491 3.26455H10.7574C10.8237 3.26455 10.8873 3.23822 10.9342 3.19133C10.9811 3.14445 11.0074 3.08086 11.0074 3.01455C11.0074 2.94825 10.9811 2.88466 10.9342 2.83778C10.8873 2.79089 10.8237 2.76455 10.7574 2.76455H7.50491C7.4386 2.76455 7.37501 2.79089 7.32813 2.83778C7.28125 2.88466 7.25491 2.94825 7.25491 3.01455C7.25491 3.08086 7.28125 3.14445 7.32813 3.19133C7.37501 3.23822 7.4386 3.26455 7.50491 3.26455ZM7.50491 6.0928H10.7574C10.8237 6.0928 10.8873 6.06647 10.9342 6.01958C10.9811 5.9727 11.0074 5.90911 11.0074 5.8428C11.0074 5.7765 10.9811 5.71291 10.9342 5.66603C10.8873 5.61914 10.8237 5.5928 10.7574 5.5928H7.50491C7.4386 5.5928 7.37501 5.61914 7.32813 5.66603C7.28125 5.71291 7.25491 5.7765 7.25491 5.8428C7.25491 5.90911 7.28125 5.9727 7.32813 6.01958C7.37501 6.06647 7.4386 6.0928 7.50491 6.0928ZM4.53516 7.54293H10.7574C10.8237 7.54293 10.8873 7.51659 10.9342 7.46971C10.9811 7.42282 11.0074 7.35923 11.0074 7.29293C11.0074 7.22663 10.9811 7.16304 10.9342 7.11615C10.8873 7.06927 10.8237 7.04293 10.7574 7.04293H4.53516C4.46885 7.04293 4.40526 7.06927 4.35838 7.11615C4.3115 7.16304 4.28516 7.22663 4.28516 7.29293C4.28516 7.35923 4.3115 7.42282 4.35838 7.46971C4.40526 7.51659 4.46885 7.54293 4.53516 7.54293ZM4.53516 8.95718H10.7574C10.8237 8.95718 10.8873 8.93084 10.9342 8.88396C10.9811 8.83707 11.0074 8.77348 11.0074 8.70718C11.0074 8.64087 10.9811 8.57729 10.9342 8.5304C10.8873 8.48352 10.8237 8.45718 10.7574 8.45718H4.53516C4.46885 8.45718 4.40526 8.48352 4.35838 8.5304C4.3115 8.57729 4.28516 8.64087 4.28516 8.70718C4.28516 8.77348 4.3115 8.83707 4.35838 8.88396C4.40526 8.93084 4.46885 8.95718 4.53516 8.95718ZM4.53516 10.3713H10.7574C10.8237 10.3713 10.8873 10.345 10.9342 10.2981C10.9811 10.2512 11.0074 10.1876 11.0074 10.1213C11.0074 10.055 10.9811 9.99141 10.9342 9.94453C10.8873 9.89764 10.8237 9.8713 10.7574 9.8713H4.53516C4.46885 9.8713 4.40526 9.89764 4.35838 9.94453C4.3115 9.99141 4.28516 10.055 4.28516 10.1213C4.28516 10.1876 4.3115 10.2512 4.35838 10.2981C4.40526 10.345 4.46885 10.3713 4.53516 10.3713Z" stroke="#8F9092" stroke-width="0.2" mask="url(#path-2-outside-1_40_7651)"/>
</svg>
