<svg width="31" height="30" viewBox="0 0 31 30" fill="none" xmlns="http://www.w3.org/2000/svg">
<g clip-path="url(#clip0_12_1001)">
<path d="M26.394 0.77589C26.1432 0.662754 25.864 0.624109 25.591 0.664736C25.318 0.705364 25.0631 0.82348 24.8579 1.00448L22.8673 2.73082L20.1589 0.358054C19.6148 -0.119351 18.7911 -0.119351 18.247 0.358054L15.5408 2.72858L12.8341 0.358054C12.2898 -0.119351 11.466 -0.119351 10.9217 0.358054L8.21268 2.73082L6.22016 1.00455C5.63223 0.49272 4.73193 0.544633 4.20934 1.12046C3.97537 1.37828 3.84722 1.71186 3.84964 2.05679V27.9432C3.84498 28.7147 4.47982 29.3439 5.26758 29.3484C5.61986 29.3505 5.96044 29.2248 6.22374 28.9955L8.2144 27.2692L10.9227 29.6419C11.4669 30.1194 12.2906 30.1194 12.8347 29.6419L15.5408 27.2711L18.2474 29.6417C18.7916 30.119 19.6155 30.119 20.1597 29.6417L22.8688 27.269L24.8613 28.9952C25.4492 29.5072 26.3495 29.4555 26.8721 28.8798C27.1063 28.6218 27.2345 28.2881 27.232 27.9429V2.05679C27.2355 1.78642 27.158 1.52099 27.009 1.29333C26.8601 1.06567 26.6462 0.885769 26.394 0.77589ZM23.8162 26.2166C23.272 25.7445 22.4529 25.7466 21.9113 26.2216L19.2031 28.5943L16.4969 26.2238C15.9527 25.7464 15.1288 25.7464 14.5847 26.2238L11.8782 28.5943L9.16878 26.2216C8.62926 25.7467 7.81159 25.7445 7.26942 26.2166L5.28415 27.9424V24.1979L5.27697 2.05714L7.26548 3.78307C7.80966 4.25521 8.62876 4.2531 9.17036 3.77808L11.8786 1.40538L14.5848 3.7759C15.129 4.25331 15.9528 4.25331 16.497 3.7759L19.2035 1.40538L21.9129 3.77808C22.4524 4.25303 23.2701 4.25521 23.8122 3.78314L25.7975 2.05679V19.8515L25.8047 27.9426L23.8162 26.2166Z" fill="url(#paint0_linear_12_1001)"/>
<path d="M22.3397 14.2974H8.74167C8.34553 14.2974 8.02441 14.6119 8.02441 14.9999C8.02441 15.3879 8.34553 15.7024 8.74167 15.7024H22.3397C22.7359 15.7024 23.057 15.3879 23.057 14.9999C23.057 14.6119 22.7358 14.2974 22.3397 14.2974ZM15.8845 10.0825H8.74167C8.34553 10.0825 8.02441 10.397 8.02441 10.785C8.02441 11.173 8.34553 11.4875 8.74167 11.4875H15.8845C16.2806 11.4875 16.6017 11.173 16.6017 10.785C16.6017 10.397 16.2805 10.0825 15.8845 10.0825ZM22.3397 18.5123H8.74167C8.34553 18.5123 8.02441 18.8268 8.02441 19.2148C8.02441 19.6027 8.34553 19.9172 8.74167 19.9172H22.3397C22.7359 19.9172 23.057 19.6027 23.057 19.2148C23.057 18.8268 22.7358 18.5123 22.3397 18.5123Z" fill="url(#paint1_linear_12_1001)"/>
</g>
<defs>
<linearGradient id="paint0_linear_12_1001" x1="15.5409" y1="0" x2="15.5409" y2="30" gradientUnits="userSpaceOnUse">
<stop stop-color="#91E7BB"/>
<stop offset="1" stop-color="#4AD991"/>
</linearGradient>
<linearGradient id="paint1_linear_12_1001" x1="15.5407" y1="10.0825" x2="15.5407" y2="19.9172" gradientUnits="userSpaceOnUse">
<stop stop-color="#91E7BB"/>
<stop offset="1" stop-color="#4AD991"/>
</linearGradient>
<clipPath id="clip0_12_1001">
<rect width="30.6308" height="30" fill="white" transform="translate(0.225586)"/>
</clipPath>
</defs>
</svg>
