<svg width="17" height="16" viewBox="0 0 17 16" fill="none" xmlns="http://www.w3.org/2000/svg">
<g clip-path="url(#clip0_2027_616)">
<path d="M8.49988 10.6666C8.81032 10.6672 9.1166 10.5956 9.39454 10.4573L10.7279 9.79062C11.4075 9.45319 11.8362 8.75872 11.8332 7.99997V6.02197C11.8356 5.26387 11.4069 4.57031 10.7279 4.23331L9.39454 3.56665C8.83119 3.28665 8.16923 3.28665 7.60588 3.56665L6.27254 4.23331C5.59323 4.57012 5.16432 5.26375 5.16654 6.02197V7.99997C5.1641 8.75825 5.5927 9.45206 6.27188 9.78931L7.60523 10.456C7.88304 10.5947 8.18935 10.6668 8.49988 10.6666ZM6.49988 7.99997V6.02197C6.50095 5.95397 6.51241 5.8865 6.53388 5.82197L7.98723 6.54862C8.30998 6.70994 8.68982 6.70994 9.01257 6.54862L10.4659 5.82197C10.4874 5.8865 10.4989 5.95397 10.4999 6.02197V7.99997C10.501 8.2529 10.3579 8.4844 10.1313 8.59662L8.79791 9.26328C8.60991 9.35631 8.38926 9.35631 8.20126 9.26328L6.86791 8.59662C6.64145 8.48422 6.4987 8.25278 6.49988 7.99997ZM13.1665 14.6666H11.3605L13.6852 12.5186C16.5491 9.65481 16.5492 5.01162 13.6854 2.14772C10.8215 -0.716189 6.17838 -0.716221 3.31448 2.14756C0.45057 5.01134 0.450508 9.65459 3.31432 12.5185C3.3206 12.5247 5.63923 14.6666 5.63923 14.6666H3.83323C3.46504 14.6666 3.16657 14.9651 3.16657 15.3333C3.16657 15.7015 3.46504 15.9999 3.83323 15.9999H13.1666C13.5348 15.9999 13.8332 15.7015 13.8332 15.3333C13.8332 14.9651 13.5347 14.6666 13.1665 14.6666ZM4.25723 3.09062C6.59523 0.742123 10.3944 0.733623 12.7429 3.07162C15.0914 5.40962 15.0999 9.20878 12.7619 11.5573L10.1052 14.0113C9.19848 14.8659 7.78129 14.861 6.88057 13.9999L4.25723 11.5759C1.9177 9.23128 1.91773 5.43531 4.25723 3.09062Z" fill="black"/>
</g>
<defs>
<clipPath id="clip0_2027_616">
<rect width="16" height="16" fill="white" transform="translate(0.5)"/>
</clipPath>
</defs>
</svg>
