<svg width="14" height="14" viewBox="0 0 14 14" fill="none" xmlns="http://www.w3.org/2000/svg">
<path d="M10.1525 4.90513V4.05082M10.1525 4.05082L8.11864 4.05084C7.557 4.05084 7.10169 3.59553 7.10169 3.0339V1M10.1525 4.05082L7.10169 1M7.10169 1H2.01695C1.45531 1 1 1.45531 1 2.01695V11.983C1 12.5447 1.45531 13 2.01695 13H4.29817M3.0339 5.88135H8.11864M3.0339 7.91525H7.14242M3.0339 9.94914H5.2196M7.56587 12.7612L6.372 13L6.61078 11.8061C6.68953 11.4124 6.88307 11.0507 7.167 10.7668L11.5618 6.37203L13 7.8102L8.6052 12.205C8.32126 12.4889 7.95963 12.6825 7.56587 12.7612Z" stroke="#8F9092" stroke-miterlimit="10" stroke-linecap="round" stroke-linejoin="round"/>
</svg>
