<svg width="14" height="16" viewBox="0 0 14 16" fill="none" xmlns="http://www.w3.org/2000/svg">
<path d="M4.33333 4.64992H9.66667C9.92746 4.64992 10.1776 4.54632 10.362 4.36191C10.5464 4.1775 10.65 3.92738 10.65 3.66659V1.66659C10.65 1.40579 10.5464 1.15567 10.362 0.971264C10.1776 0.786853 9.92746 0.683252 9.66667 0.683252H4.33333C4.07254 0.683252 3.82242 0.786853 3.63801 0.971264C3.4536 1.15567 3.35 1.40579 3.35 1.66659V3.66659C3.35 3.92738 3.4536 4.1775 3.63801 4.36191C3.82242 4.54632 4.07254 4.64992 4.33333 4.64992ZM9.35 1.98325V3.34992H4.65V1.98325H9.35Z" fill="#8F9092" stroke="#9C9EA0" stroke-width="0.3"/>
<path d="M11.667 15.3166L11.6678 15.3166C12.0162 15.3146 12.3497 15.1754 12.5961 14.9291C12.8424 14.6827 12.9817 14.3492 12.9837 14.0008V14L12.9837 3.33329L12.9837 3.33244C12.9817 2.98408 12.8424 2.65054 12.5961 2.4042C12.3497 2.15787 12.0162 2.0186 11.6678 2.01663H11.667H10.0003C9.82794 2.01663 9.66261 2.08511 9.54071 2.20701C9.41881 2.32891 9.35033 2.49424 9.35033 2.66663C9.35033 2.83902 9.41881 3.00435 9.54071 3.12625C9.66261 3.24814 9.82794 3.31663 10.0003 3.31663H11.667C11.6714 3.31663 11.6757 3.31838 11.6788 3.32151L11.784 3.21629L11.6788 3.32151C11.6819 3.32463 11.6837 3.32887 11.6837 3.33329V14C11.6837 14.0044 11.6819 14.0086 11.6788 14.0117C11.6757 14.0149 11.6714 14.0166 11.667 14.0166H2.33366C2.32924 14.0166 2.325 14.0149 2.32187 14.0117C2.31875 14.0086 2.31699 14.0044 2.31699 14V3.33329C2.31699 3.32887 2.31875 3.32463 2.32187 3.32151C2.325 3.31838 2.32924 3.31663 2.33366 3.31663H4.00033C4.17272 3.31663 4.33805 3.24814 4.45994 3.12625C4.58184 3.00435 4.65033 2.83902 4.65033 2.66663C4.65033 2.49423 4.58184 2.3289 4.45994 2.20701C4.33805 2.08511 4.17272 2.01663 4.00033 2.01663H2.33366V2.01662L2.33281 2.01663C1.98444 2.0186 1.65091 2.15787 1.40457 2.4042C1.15823 2.65054 1.01897 2.98408 1.01699 3.33244H1.01699V3.33329L1.01699 14L1.01699 14.0008C1.01897 14.3492 1.15823 14.6827 1.40457 14.9291C1.65091 15.1754 1.98444 15.3146 2.33281 15.3166H2.33366L11.667 15.3166Z" fill="#8F9092" stroke="#9C9EA0" stroke-width="0.3"/>
<path d="M4.56756 9.59184L4.5677 9.59196L6.06709 10.9247C6.18566 11.0323 6.34041 11.0913 6.50048 11.0899C6.65957 11.0917 6.81416 11.0369 6.93656 10.9352L6.94374 10.9293L6.95012 10.9224L9.44861 8.25739C9.56921 8.13569 9.63692 7.97126 9.63692 7.79985C9.63692 7.6276 9.56855 7.4624 9.44682 7.34052L9.44669 7.34039C9.32482 7.21866 9.15961 7.15029 8.98736 7.15029C8.81511 7.15029 8.6499 7.21866 8.52802 7.34039L8.52797 7.34034L8.52484 7.34367L6.45839 9.53728L5.434 8.62137L5.43401 8.62136L5.43256 8.62009C5.30333 8.50749 5.1352 8.44989 4.96407 8.45957C4.79294 8.46926 4.63238 8.54547 4.51669 8.67194L4.51668 8.67193L4.51556 8.67317C4.45858 8.73687 4.41472 8.81118 4.38649 8.89185C4.35825 8.97252 4.34621 9.05796 4.35104 9.14329C4.35587 9.22862 4.37748 9.31216 4.41463 9.38913C4.45179 9.4661 4.50376 9.53498 4.56756 9.59184Z" fill="#8F9092" stroke="#9C9EA0" stroke-width="0.3"/>
</svg>
