<svg width="31" height="30" viewBox="0 0 31 30" fill="none" xmlns="http://www.w3.org/2000/svg">
<g clip-path="url(#clip0_12_997)">
<path d="M24.4223 3.9308H21.6512V2.71662C21.6512 2.32379 21.2136 2.14525 20.8125 2.14525H18.6613C18.1508 0.716788 16.8746 0.0025564 15.4161 0.0025564C13.9737 -0.0505547 12.6617 0.815697 12.171 2.14525H10.0562C9.65508 2.14525 9.25399 2.32379 9.25399 2.71662V3.9308H6.48278C4.84059 3.94795 3.49711 5.21674 3.41992 6.82341V27.2861C3.41992 28.8574 4.87842 30.0002 6.48278 30.0002H24.4223C26.0267 30.0002 27.4852 28.8574 27.4852 27.2861V6.82347C27.408 5.21674 26.0645 3.94795 24.4223 3.9308ZM10.7124 3.57372H12.7179C12.8884 3.55334 13.0478 3.47989 13.1725 3.36417C13.2972 3.24846 13.3807 3.09659 13.4107 2.93091C13.6266 2.00991 14.4516 1.34879 15.4161 1.32391C16.3717 1.35228 17.1843 2.01545 17.3851 2.93091C17.4169 3.10199 17.5057 3.25791 17.6377 3.37423C17.7697 3.49056 17.9373 3.56072 18.1143 3.57372H20.1927V6.43064H10.7124V3.57372ZM26.0267 27.2862C26.0267 28.0718 25.2245 28.5718 24.4223 28.5718H6.48278C5.6806 28.5718 4.87842 28.0718 4.87842 27.2862V6.82347C4.95282 6.00569 5.64459 5.3743 6.48278 5.35933H9.25392V7.18062C9.29244 7.58077 9.64629 7.88009 10.0561 7.85918H20.8125C21.0137 7.86996 21.2118 7.80614 21.3672 7.6804C21.5226 7.55467 21.6239 7.37624 21.6511 7.18062V5.35926H24.4222C25.2604 5.3743 25.9522 6.00562 26.0266 6.82341V27.2862H26.0267Z" fill="url(#paint0_linear_12_997)"/>
<path d="M12.6451 15.9655C12.3716 15.6831 11.9176 15.6672 11.6241 15.9298L9.29054 18.1081L8.30606 17.1082C8.03255 16.8258 7.57849 16.81 7.28508 17.0725C7.14911 17.212 7.07324 17.3975 7.07324 17.5903C7.07324 17.7832 7.14911 17.9686 7.28508 18.1081L8.78001 19.608C8.84393 19.6781 8.92276 19.7337 9.01095 19.7707C9.09915 19.8077 9.19456 19.8253 9.29047 19.8223C9.48282 19.8197 9.6663 19.7426 9.80092 19.608L12.645 16.9654C12.9269 16.7121 12.9458 16.2828 12.6871 16.0067C12.6738 15.9923 12.6598 15.9785 12.6451 15.9655ZM23.1098 17.501H14.7235C14.3207 17.501 13.9943 17.8208 13.9943 18.2153C13.9943 18.6097 14.3207 18.9295 14.7235 18.9295H23.1098C23.5126 18.9295 23.8391 18.6097 23.8391 18.2153C23.8391 17.8208 23.5126 17.501 23.1098 17.501ZM12.6451 10.2516C12.3716 9.96923 11.9176 9.9533 11.6241 10.2159L9.29054 12.3943L8.30606 11.3943C8.03255 11.112 7.57849 11.096 7.28508 11.3587C7.14911 11.4982 7.07324 11.6836 7.07324 11.8765C7.07324 12.0693 7.14911 12.2548 7.28508 12.3943L8.78001 13.8942C8.84393 13.9643 8.92276 14.0198 9.01095 14.0568C9.09915 14.0939 9.19456 14.1115 9.29047 14.1085C9.48282 14.1058 9.6663 14.0288 9.80092 13.8942L12.645 11.2516C12.9269 10.9982 12.9458 10.569 12.6871 10.2929C12.6738 10.2785 12.6598 10.2647 12.6451 10.2516ZM23.1098 11.7872H14.7235C14.3207 11.7872 13.9943 12.1069 13.9943 12.5014C13.9943 12.8959 14.3207 13.2156 14.7235 13.2156H23.1098C23.5126 13.2156 23.8391 12.8959 23.8391 12.5014C23.8391 12.1069 23.5126 11.7872 23.1098 11.7872ZM12.6451 21.6792C12.3716 21.3969 11.9176 21.381 11.6241 21.6436L9.29054 23.8219L8.30606 22.822C8.03255 22.5396 7.57849 22.5238 7.28508 22.7863C7.14911 22.9258 7.07324 23.1113 7.07324 23.3041C7.07324 23.497 7.14911 23.6824 7.28508 23.8219L8.78001 25.3218C8.84393 25.3919 8.92276 25.4474 9.01095 25.4845C9.09915 25.5215 9.19456 25.5391 9.29047 25.5361C9.48282 25.5335 9.6663 25.4564 9.80092 25.3218L12.645 22.6792C12.9269 22.4259 12.9458 21.9966 12.6871 21.7205C12.6737 21.7061 12.6597 21.6924 12.6451 21.6792ZM23.1098 23.2149H14.7235C14.3207 23.2149 13.9943 23.5346 13.9943 23.9291C13.9943 24.3236 14.3207 24.6433 14.7235 24.6433H23.1098C23.5126 24.6433 23.8391 24.3236 23.8391 23.9291C23.8391 23.5346 23.5126 23.2149 23.1098 23.2149Z" fill="url(#paint1_linear_12_997)"/>
</g>
<defs>
<linearGradient id="paint0_linear_12_997" x1="15.4525" y1="0.000244141" x2="15.4525" y2="30.0002" gradientUnits="userSpaceOnUse">
<stop stop-color="#FEDB89"/>
<stop offset="1" stop-color="#FEC53D"/>
</linearGradient>
<linearGradient id="paint1_linear_12_997" x1="15.4562" y1="10.0289" x2="15.4562" y2="25.5364" gradientUnits="userSpaceOnUse">
<stop stop-color="#FEDB89"/>
<stop offset="1" stop-color="#FEC53D"/>
</linearGradient>
<clipPath id="clip0_12_997">
<rect width="30.6308" height="30" fill="white" transform="translate(0.137207)"/>
</clipPath>
</defs>
</svg>
