<svg width="17" height="17" viewBox="0 0 17 17" fill="none" xmlns="http://www.w3.org/2000/svg">
<g clip-path="url(#clip0_2027_620)">
<path d="M8.5 8.5C10.706 8.5 12.5 6.706 12.5 4.5C12.5 2.294 10.706 0.5 8.5 0.5C6.294 0.5 4.5 2.294 4.5 4.5C4.5 6.706 6.294 8.5 8.5 8.5ZM8.5 1.83333C9.97067 1.83333 11.1667 3.02933 11.1667 4.5C11.1667 5.97067 9.97067 7.16667 8.5 7.16667C7.02933 7.16667 5.83333 5.97067 5.83333 4.5C5.83333 3.02933 7.02933 1.83333 8.5 1.83333ZM14.5 15.8333C14.5 16.2013 14.202 16.5 13.8333 16.5C13.4647 16.5 13.1667 16.2013 13.1667 15.8333C13.1667 13.8207 11.8833 12.1067 10.094 11.4533L9.08267 12.9707L9.81133 15.6307C9.93333 16.0747 9.54133 16.5007 9.01067 16.5007H7.98933C7.45867 16.5007 7.06733 16.0747 7.18867 15.6307L7.91733 12.9707L6.906 11.4533C5.11667 12.1067 3.83333 13.8207 3.83333 15.834C3.83333 16.202 3.53467 16.5007 3.16667 16.5007C2.79867 16.5007 2.5 16.202 2.5 15.834C2.5 12.526 5.192 9.834 8.5 9.834C11.808 9.834 14.5 12.5253 14.5 15.8333Z" fill="black"/>
</g>
<defs>
<clipPath id="clip0_2027_620">
<rect width="16" height="16" fill="white" transform="translate(0.5 0.5)"/>
</clipPath>
</defs>
</svg>
